# xmcd
#
# Track frame offsets:
#	150
#	14456
#	35117
#	59701
#	77111
#	87349
#	106221
#	125298
#	151077
#	163836
#
# Disc length: 2743 seconds
#
# Revision: 0
# Processed by: cddbd v1.4PL0 Copyright (c) Steve Scherf et al.
# Submitted via: EasyCDDAExtractor 4.6.9.1
#
DISCID=7d0ab50a
DTITLE=Pignon sur rue
DYEAR=2001
DGENRE=chanson
TTITLE0=Nouveaux matins
TTITLE1=Stressé
TTITLE2=Les allumettes grand vent
TTITLE3=Le grand soir
TTITLE4=Sans commentaire
TTITLE5=Je marche
TTITLE6=Le vieil ivrogne
TTITLE7=Chasseur d'ombre
TTITLE8=Barbe à papa
TTITLE9=Lamenlable
EXTD=
EXTT0=
EXTT1=
EXTT2=
EXTT3=
EXTT4=
EXTT5=
EXTT6=
EXTT7=
EXTT8=
EXTT9=
PLAYORDER=
